<svg width="35" height="34" viewBox="0 0 35 34" fill="none" xmlns="http://www.w3.org/2000/svg">
<circle cx="17.8281" cy="17" r="17" fill="white"/>
<path d="M17.4316 6C11.588 6 6.82812 10.7599 6.82812 16.6034C6.82812 22.447 11.588 27.2069 17.4316 27.2069C23.2751 27.2069 28.035 22.447 28.035 16.6034C28.035 10.7599 23.2751 6 17.4316 6ZM17.4316 8.12069C22.129 8.12069 25.9143 11.906 25.9143 16.6034C25.9143 20.8602 22.8026 24.3578 18.7239 24.9785V19.1321H21.1925L21.5798 16.6242H18.7239V15.2532C18.7239 14.2108 19.0634 13.2857 20.0389 13.2857H21.6046V11.0967C21.3289 11.0596 20.7471 10.9787 19.6475 10.9787C17.3508 10.9787 16.0047 12.1917 16.0047 14.9549V16.6242H13.6437V19.1321H16.0047V24.9578C11.9923 24.2812 8.94881 20.8133 8.94881 16.6034C8.94881 11.906 12.7341 8.12069 17.4316 8.12069Z" fill="#713F97"/>
</svg>
