<svg width="35" height="34" viewBox="0 0 35 34" fill="none" xmlns="http://www.w3.org/2000/svg">
<circle cx="17.8281" cy="17" r="17" fill="white"/>
<path d="M13.1298 7C10.2065 7 7.82812 9.37835 7.82812 12.3017V20.7845C7.82812 23.7079 10.2065 26.0862 13.1298 26.0862H21.6126C24.536 26.0862 26.9143 23.7079 26.9143 20.7845V12.3017C26.9143 9.37835 24.536 7 21.6126 7H13.1298ZM13.1298 9.12069H21.6126C23.3664 9.12069 24.7936 10.5479 24.7936 12.3017V20.7845C24.7936 22.5383 23.3664 23.9655 21.6126 23.9655H13.1298C11.376 23.9655 9.94881 22.5383 9.94881 20.7845V12.3017C9.94881 10.5479 11.376 9.12069 13.1298 9.12069ZM22.673 10.181C22.3917 10.181 22.122 10.2927 21.9232 10.4916C21.7243 10.6905 21.6126 10.9602 21.6126 11.2414C21.6126 11.5226 21.7243 11.7923 21.9232 11.9912C22.122 12.19 22.3917 12.3017 22.673 12.3017C22.9542 12.3017 23.2239 12.19 23.4227 11.9912C23.6216 11.7923 23.7333 11.5226 23.7333 11.2414C23.7333 10.9602 23.6216 10.6905 23.4227 10.4916C23.2239 10.2927 22.9542 10.181 22.673 10.181ZM17.3712 11.2414C14.4479 11.2414 12.0695 13.6197 12.0695 16.5431C12.0695 19.4665 14.4479 21.8448 17.3712 21.8448C20.2946 21.8448 22.673 19.4665 22.673 16.5431C22.673 13.6197 20.2946 11.2414 17.3712 11.2414ZM17.3712 13.3621C19.125 13.3621 20.5523 14.7893 20.5523 16.5431C20.5523 18.2969 19.125 19.7241 17.3712 19.7241C15.6174 19.7241 14.1902 18.2969 14.1902 16.5431C14.1902 14.7893 15.6174 13.3621 17.3712 13.3621Z" fill="#713F97"/>
</svg>
