<svg width="35" height="34" viewBox="0 0 35 34" fill="none" xmlns="http://www.w3.org/2000/svg">
<circle cx="17.8281" cy="17" r="17" fill="white"/>
<path d="M23.6615 7H11.9948C9.69396 7 7.82812 8.77254 7.82812 10.9583V22.0417C7.82812 24.2275 9.69396 26 11.9948 26H23.6615C25.9631 26 27.8281 24.2275 27.8281 22.0417V10.9583C27.8281 8.77254 25.9631 7 23.6615 7ZM14.4948 22.0417H11.9948V13.3333H14.4948V22.0417ZM13.2448 12.3295C12.4398 12.3295 11.7865 11.7041 11.7865 10.933C11.7865 10.1619 12.4398 9.5365 13.2448 9.5365C14.0498 9.5365 14.7031 10.1619 14.7031 10.933C14.7031 11.7041 14.0506 12.3295 13.2448 12.3295ZM24.4948 22.0417H21.9948V17.6052C21.9948 14.9388 18.6615 15.1407 18.6615 17.6052V22.0417H16.1615V13.3333H18.6615V14.7306C19.8248 12.6834 24.4948 12.5322 24.4948 16.6908V22.0417Z" fill="#713F97"/>
</svg>
