<svg width="22" height="22" viewBox="0 0 22 22" fill="none" xmlns="http://www.w3.org/2000/svg">
<path d="M11.2184 0C5.38015 0 0.627441 4.74862 0.62532 10.5869C0.62426 12.4531 1.11306 14.275 2.0398 15.8803L0.602539 21.2069L6.15071 19.896C7.69775 20.74 9.4393 21.1831 11.2122 21.1841H11.2163C17.0535 21.1841 21.8042 16.4344 21.8074 10.5972C21.8095 7.76717 20.709 5.10634 18.7092 3.10441C16.7094 1.10354 14.0517 0.00106034 11.2184 0ZM11.2163 2.12069C13.4812 2.12175 15.6097 3.0048 17.2098 4.6038C18.8098 6.20492 19.6888 8.33239 19.6867 10.5952C19.6846 15.2649 15.8861 19.0634 11.2143 19.0634C9.80083 19.0624 8.40075 18.7075 7.16756 18.0341L6.45307 17.6448L5.66403 17.8312L3.57647 18.3241L4.08594 16.4312L4.31582 15.5821L3.87677 14.82C3.13665 13.5391 2.74495 12.0745 2.74601 10.5869C2.74813 5.91924 6.54764 2.12069 11.2163 2.12069ZM7.46993 5.69935C7.29285 5.69935 7.00654 5.76562 6.76372 6.03071C6.5209 6.29474 5.83592 6.93421 5.83592 8.23631C5.83592 9.53841 6.78443 10.7971 6.91698 10.9742C7.04846 11.1502 8.74784 13.9067 11.4379 14.967C13.6731 15.8482 14.1271 15.6743 14.6128 15.6297C15.0984 15.5863 16.1795 14.9908 16.4 14.3726C16.6206 13.7545 16.6211 13.2227 16.5553 13.1135C16.4896 13.0032 16.313 12.9374 16.048 12.8049C15.7839 12.6724 14.4828 12.0335 14.24 11.9454C13.9972 11.8574 13.8196 11.8129 13.6435 12.078C13.4675 12.3431 12.9617 12.9375 12.8069 13.1135C12.652 13.2906 12.4983 13.3144 12.2332 13.1818C11.9681 13.0482 11.1158 12.768 10.1042 11.8667C9.31745 11.1659 8.78656 10.3011 8.63175 10.036C8.478 9.77197 8.61726 9.62695 8.7498 9.49547C8.86856 9.37671 9.01281 9.18638 9.14536 9.03157C9.27684 8.87676 9.32243 8.76647 9.41044 8.59045C9.49845 8.41443 9.4534 8.25909 9.38766 8.12655C9.32192 7.99401 8.80709 6.68706 8.57169 6.16325C8.37341 5.72321 8.16399 5.71299 7.97525 5.70557C7.8215 5.6992 7.64595 5.69935 7.46993 5.69935Z" fill="white"/>
</svg>
