<svg width="35" height="34" viewBox="0 0 35 34" fill="none" xmlns="http://www.w3.org/2000/svg">
<circle cx="17.8281" cy="17" r="17" fill="white"/>
<path d="M17.4316 9C17.4316 9 10.7997 8.99997 9.14556 9.44319C8.2326 9.68707 7.5152 10.4055 7.27132 11.3174C6.82809 12.9716 6.82813 17.4828 6.82813 17.4828C6.82813 17.4828 6.82809 21.9939 7.27132 23.6481C7.5152 24.561 8.23366 25.2784 9.14556 25.5223C10.7997 25.9655 17.4316 25.9655 17.4316 25.9655C17.4316 25.9655 24.0634 25.9655 25.7176 25.5223C26.6295 25.2784 27.348 24.56 27.5918 23.6481C28.0351 21.9939 28.035 17.4828 28.035 17.4828C28.035 17.4828 28.0351 12.9716 27.5918 11.3174C27.348 10.4055 26.6295 9.68707 25.7176 9.44319C24.0634 8.99997 17.4316 9 17.4316 9ZM17.4316 11.1207C20.4875 11.1207 24.3141 11.2624 25.1688 11.4914C25.348 11.5391 25.4949 11.686 25.5436 11.8662C25.7992 12.8184 25.9143 15.7247 25.9143 17.4828C25.9143 19.2408 25.7992 22.146 25.5436 23.0993C25.4959 23.2785 25.349 23.4253 25.1688 23.4741C24.3152 23.7032 20.4875 23.8448 17.4316 23.8448C14.3767 23.8448 10.5501 23.7032 9.69437 23.4741C9.51517 23.4264 9.3683 23.2795 9.31952 23.0993C9.06398 22.1471 8.94881 19.2408 8.94881 17.4828C8.94881 15.7247 9.06398 12.8185 9.31952 11.8642C9.36724 11.686 9.51411 11.5391 9.69437 11.4914C10.5479 11.2624 14.3757 11.1207 17.4316 11.1207ZM15.3109 13.8088V21.1567L21.673 17.4828L15.3109 13.8088Z" fill="#713F97"/>
</svg>
