<svg width="38" height="14" viewBox="0 0 38 14" fill="none" xmlns="http://www.w3.org/2000/svg">
<g clip-path="url(#clip0_657_2267)">
<path fill-rule="evenodd" clip-rule="evenodd" d="M6.30089 0.994141C6.28847 0.994141 6.27604 0.994141 6.26362 0.994141C4.59459 0.994141 2.98872 1.38425 1.43254 2.17125C0.800959 3.68266 0.444789 5.21911 0.426152 6.78685C0.401303 8.34208 0.719682 9.93485 1.42581 11.5594C3.05084 12.2708 4.67587 12.6359 6.30089 12.6552C7.92592 12.6359 9.55095 12.2708 11.1755 11.5594C11.8821 9.93485 12.2005 8.34208 12.1756 6.78685C12.157 5.21911 11.8008 3.68266 11.1692 2.17125C9.61307 1.38425 8.0072 0.994141 6.33817 0.994141C6.32574 0.994141 6.31332 0.994141 6.30089 0.994141Z" fill="#FEFEFE"/>
<path d="M1.16992 1.82592C2.80737 0.982071 4.50695 0.566406 6.26347 0.566406C6.27589 0.566406 6.28832 0.566406 6.30074 0.566406C6.31317 0.566406 6.32559 0.566406 6.33802 0.566406C8.09454 0.566406 9.79411 0.982071 11.4316 1.82592L11.532 1.93283C12.2003 3.51935 12.5819 5.13768 12.6005 6.78104C12.6005 6.81234 12.6005 6.83737 12.6005 6.86918V6.98236C12.5943 8.56262 12.2568 10.1747 11.532 11.8118L11.4191 11.9187C9.71335 12.6807 8.00705 13.0645 6.30074 13.0838C4.59444 13.0645 2.88813 12.6807 1.18234 11.9187L1.06949 11.8118C0.344722 10.1747 0.00718884 8.56262 0.000976562 6.98236V6.86918C0.000976562 6.83737 0.000976562 6.81234 0.000976562 6.78104C0.0196134 5.13768 0.401151 3.51935 1.06949 1.93283L1.16992 1.82592ZM6.30074 0.994588C6.28832 0.994588 6.27589 0.994588 6.26347 0.994588C4.59444 0.994588 2.98856 1.3847 1.43239 2.1717C0.800807 3.68311 0.444637 5.21956 0.426 6.7873C0.401151 8.34253 0.71953 9.9353 1.42566 11.5599C3.05069 12.2713 4.67571 12.6363 6.30074 12.6556C7.92577 12.6363 9.5508 12.2713 11.1753 11.5599C11.882 9.9353 12.2003 8.34253 12.1755 6.7873C12.1568 5.21956 11.8007 3.68311 11.1691 2.1717C9.61292 1.3847 8.00705 0.994588 6.33802 0.994588C6.32559 0.994588 6.31317 0.994588 6.30074 0.994588Z" fill="#003399"/>
<path fill-rule="evenodd" clip-rule="evenodd" d="M6.41259 10.3207C6.3251 9.11801 6.38153 7.86475 6.02536 6.71894C5.69404 5.64874 4.4376 5.03802 4.41275 3.86039C4.38791 2.94092 5.08161 1.87699 6.38153 1.87699C7.60017 1.87073 8.35651 2.76464 8.444 3.75973C8.55013 4.91181 7.16272 5.68629 6.80034 6.78204C6.42501 7.90283 6.53166 9.14304 6.41259 10.3207Z" fill="#003399"/>
<path fill-rule="evenodd" clip-rule="evenodd" d="M6.89339 10.0293C6.84318 8.98415 6.84318 7.98332 7.13101 7.09515C7.44939 6.08806 8.11204 5.23795 9.12464 4.96101C9.81834 4.77222 10.8366 5.59051 10.6746 6.4281C10.5369 7.10193 9.86804 7.89518 8.79332 7.98332C8.29323 8.02713 8.08097 8.43028 7.76829 8.66341C9.16812 8.52468 10.0746 7.97081 10.7057 7.39138C10.7994 7.88215 10.862 8.70722 10.4805 8.99041C9.73085 9.52551 9.03715 9.09107 8.15552 9.34297C7.66216 9.48796 7.35569 9.80297 6.89339 10.0293Z" fill="#003399"/>
<path fill-rule="evenodd" clip-rule="evenodd" d="M5.93873 10.0293C5.99464 8.98415 5.98843 7.98332 5.70733 7.09515C5.38843 6.08806 4.72631 5.23795 3.7137 4.96101C3.02 4.77222 1.99498 5.59051 2.16374 6.4281C2.30145 7.10193 2.96978 7.89518 4.04503 7.98332C4.5389 8.02713 4.75737 8.43028 5.07005 8.66341C3.66349 8.52468 2.76374 7.97081 2.13268 7.39138C2.03898 7.88215 1.97634 8.70722 2.35736 8.99041C3.10749 9.52551 3.80119 9.09107 4.6823 9.34297C5.17618 9.48796 5.47592 9.80297 5.93873 10.0293Z" fill="#003399"/>
<path fill-rule="evenodd" clip-rule="evenodd" d="M9.26998 11.5847V11.4146L9.39526 11.3834L9.26998 11.1946V10.8796L9.83271 11.6666L9.63288 11.7171L9.49517 11.5216L9.26998 11.5847ZM9.26998 10.8796V11.1946L9.18249 11.0683L9.14521 11.4465L9.26998 11.4146V11.5847L9.12658 11.6165L9.10121 11.8491L8.90138 11.8997L9.03287 10.8733L9.2327 10.8227L9.26998 10.8796ZM7.40784 12.1328V11.969H7.45133C7.52018 11.9628 7.56419 11.9565 7.58282 11.9497C7.60767 11.9435 7.63252 11.9247 7.64546 11.9059C7.6641 11.8809 7.67031 11.8553 7.67031 11.8241C7.6641 11.7928 7.65789 11.7672 7.63873 11.7484C7.62631 11.7297 7.60146 11.7171 7.57661 11.7109C7.55176 11.7046 7.49533 11.7046 7.40784 11.7109V11.5471C7.45754 11.5471 7.48912 11.5409 7.50155 11.5409C7.53261 11.5346 7.55798 11.5153 7.57661 11.4965C7.59525 11.4778 7.60146 11.4527 7.59525 11.4209C7.59525 11.3896 7.58282 11.3646 7.56419 11.3515C7.55176 11.3328 7.5264 11.3203 7.48912 11.3203C7.4767 11.3203 7.45133 11.3203 7.40784 11.3265V11.1627C7.4767 11.1565 7.5264 11.1565 7.55797 11.1627C7.59525 11.1627 7.63252 11.1758 7.6641 11.1946C7.69516 11.2071 7.72001 11.2321 7.74538 11.2634C7.76402 11.2952 7.77644 11.3328 7.78265 11.3771C7.78886 11.4209 7.77644 11.4652 7.7578 11.5028C7.73917 11.5409 7.70759 11.5722 7.6641 11.5972C7.72622 11.6102 7.77644 11.6353 7.8075 11.6728C7.84529 11.7109 7.86393 11.7547 7.87014 11.8115C7.87014 11.8553 7.86393 11.8997 7.85151 11.9435C7.83287 11.9878 7.8075 12.0191 7.77644 12.0509C7.73917 12.076 7.70138 12.0947 7.65168 12.1073C7.6201 12.1135 7.53882 12.1198 7.42027 12.1328H7.40784ZM8.5887 11.6034L8.78283 11.629C8.7704 11.7359 8.73883 11.8241 8.68292 11.8872C8.62649 11.9435 8.54521 11.9878 8.4453 12.0066C8.32001 12.0254 8.20768 12.0003 8.11397 11.931C8.01406 11.8553 7.95763 11.7484 7.92657 11.5972C7.9012 11.4402 7.92036 11.3077 7.98869 11.2071C8.05133 11.1064 8.15125 11.0433 8.28274 11.0183C8.40129 10.999 8.49499 11.0183 8.58248 11.0746C8.6327 11.1064 8.67619 11.1565 8.70776 11.2321L8.52657 11.3077C8.50794 11.2634 8.47636 11.2259 8.43908 11.2071C8.39508 11.182 8.35159 11.1758 8.30138 11.182C8.23253 11.1946 8.18283 11.2321 8.14504 11.289C8.10776 11.3515 8.10155 11.4339 8.12019 11.5471C8.14504 11.6666 8.18283 11.7484 8.23253 11.7928C8.28274 11.8366 8.34538 11.8553 8.41372 11.8428C8.46393 11.8303 8.50172 11.8053 8.53278 11.7672C8.56385 11.7297 8.58248 11.6728 8.5887 11.6034ZM7.40784 11.1627V11.3265C7.383 11.3265 7.35763 11.3328 7.32657 11.3328L7.21423 11.3458L7.23286 11.5659L7.36384 11.5534C7.37627 11.5534 7.39542 11.5534 7.40784 11.5471V11.7109C7.40784 11.7109 7.40784 11.7109 7.40163 11.7109L7.2515 11.7234L7.27014 11.9816L7.40784 11.969V12.1328L7.09516 12.1641L7.00767 11.2008L7.38921 11.1695C7.39542 11.1627 7.40163 11.1627 7.40784 11.1627ZM6.20163 11.799V11.6353C6.24511 11.6353 6.27048 11.629 6.28912 11.6227C6.31397 11.6165 6.3326 11.5972 6.35176 11.5784C6.36418 11.5534 6.37039 11.5283 6.37039 11.5028C6.37661 11.4652 6.36418 11.4402 6.34503 11.4146C6.32639 11.3896 6.30154 11.3771 6.27048 11.3708C6.25132 11.3708 6.23269 11.3646 6.20163 11.3646V11.2008C6.29533 11.2008 6.35176 11.2071 6.38282 11.2196C6.43925 11.2321 6.48273 11.2634 6.52052 11.314C6.5578 11.3646 6.57643 11.4272 6.57022 11.5028C6.57022 11.5596 6.5578 11.6102 6.53916 11.654C6.51379 11.6916 6.48894 11.7234 6.45788 11.7484C6.42009 11.7672 6.38903 11.7797 6.35176 11.7928C6.31397 11.799 6.26427 11.799 6.20163 11.799ZM6.20163 11.2008V11.3646C6.18299 11.3646 6.15762 11.3646 6.12656 11.3646L6.03286 11.3583V11.6353H6.13277C6.15762 11.6353 6.18299 11.6353 6.20163 11.6353V11.799C6.1892 11.799 6.17005 11.799 6.15141 11.799H6.02665L6.02044 12.1641L5.8263 12.1578L5.84546 11.1946L6.15141 11.2008C6.17005 11.2008 6.1892 11.2008 6.20163 11.2008ZM4.39541 11.7046V11.4084C4.45183 11.4209 4.48911 11.4209 4.50774 11.4209C4.53311 11.4146 4.55175 11.4084 4.57039 11.3896C4.58281 11.3708 4.59523 11.3515 4.60145 11.3203C4.60766 11.289 4.60145 11.2634 4.58902 11.2384C4.5766 11.2133 4.55175 11.2008 4.52017 11.1883C4.50774 11.182 4.46426 11.1758 4.39541 11.1627V10.999L4.47668 11.012C4.5766 11.0308 4.64545 11.0496 4.68894 11.0746C4.73294 11.1002 4.764 11.1377 4.78264 11.1883C4.80179 11.2321 4.808 11.289 4.79558 11.3458C4.78264 11.4146 4.75158 11.4715 4.70188 11.509C4.65787 11.5471 4.58902 11.5659 4.50153 11.5659C4.53932 11.5972 4.57039 11.629 4.58902 11.6603C4.61387 11.6984 4.63924 11.7547 4.6703 11.8366L4.75158 12.0447L4.52638 12.0003L4.42647 11.7672C4.41404 11.7484 4.40783 11.7234 4.39541 11.7046ZM4.94519 11.1064L5.1326 11.1252L5.08911 11.6478C5.0829 11.7297 5.0829 11.7865 5.0829 11.8053C5.08911 11.8491 5.10775 11.8809 5.1326 11.9059C5.16418 11.9372 5.20145 11.9497 5.25788 11.9565C5.31431 11.9628 5.35779 11.9497 5.38264 11.931C5.41422 11.9122 5.43286 11.8872 5.44528 11.8553C5.45149 11.8241 5.45771 11.7672 5.46392 11.6916L5.50792 11.1565L5.70154 11.1758L5.65805 11.6791C5.65184 11.799 5.6389 11.8809 5.62026 11.9247C5.60784 11.969 5.58299 12.0129 5.55762 12.0379C5.52656 12.0697 5.48307 12.0947 5.43286 12.1073C5.38885 12.1265 5.32673 12.1265 5.25167 12.1198C5.15796 12.1135 5.08911 12.0947 5.04511 12.0697C5.00162 12.0447 4.96383 12.0129 4.93898 11.9816C4.91413 11.9435 4.90171 11.9059 4.89549 11.8684C4.88928 11.8115 4.88928 11.7297 4.89549 11.6227L4.94519 11.1064ZM3.42681 11.3896L3.46408 11.2321L3.87047 11.339L3.77055 11.7109C3.72034 11.7422 3.6577 11.761 3.57021 11.7672C3.48893 11.7735 3.41438 11.7672 3.33932 11.7484C3.23889 11.7234 3.15813 11.6791 3.1017 11.6227C3.03906 11.5596 3.00178 11.484 2.98315 11.4021C2.97021 11.314 2.97021 11.2259 2.99557 11.1377C3.02042 11.0433 3.06391 10.9614 3.12655 10.8921C3.18298 10.8295 3.25804 10.7914 3.34553 10.7726C3.41438 10.7539 3.49514 10.7601 3.58315 10.7852C3.69549 10.8164 3.78298 10.8608 3.83268 10.9301C3.88289 10.9927 3.90774 11.0746 3.90153 11.1627L3.70791 11.1502C3.70791 11.1002 3.69549 11.0558 3.66391 11.0183C3.63285 10.9865 3.59558 10.9552 3.53915 10.9427C3.45787 10.9239 3.38902 10.9301 3.32638 10.9677C3.26425 11.0058 3.22025 11.0809 3.18919 11.182C3.15813 11.2952 3.16434 11.3834 3.1954 11.4527C3.23267 11.5216 3.2891 11.5659 3.36417 11.5847C3.40765 11.5972 3.44544 11.5972 3.48893 11.5972C3.53293 11.5909 3.57021 11.5784 3.608 11.5659L3.63906 11.4465L3.42681 11.3896ZM4.39541 10.999L4.0703 10.9427L3.90774 11.8934L4.09515 11.9247L4.164 11.5283L4.208 11.5346C4.25149 11.5409 4.28307 11.5534 4.3017 11.5596C4.32034 11.5722 4.33277 11.5909 4.3514 11.6102C4.35761 11.629 4.37677 11.6603 4.39541 11.7046V11.4084C4.37677 11.4084 4.35761 11.4021 4.33277 11.4021L4.19558 11.3771L4.23285 11.1377L4.38298 11.1627C4.38919 11.1627 4.39541 11.1627 4.39541 11.1627V10.999Z" fill="#003399"/>
<path fill-rule="evenodd" clip-rule="evenodd" d="M34.1812 9.8213V8.04546H34.9562V4.9225L34.1812 6.48398V2.58654H37.2247L37.9997 11.5653H34.9562V9.8213H34.1812ZM34.1812 2.58654V6.48398L33.4062 8.04546H34.1812V9.8213H32.7187L32.1187 11.4709H30.2312V9.41815L32.3372 4.84062H31.906L33.106 2.58654H34.1812ZM30.2312 5.57755L31.175 3.32347L30.2312 2.79463V5.57755ZM22.7252 4.71493C22.7692 4.45677 22.7692 4.20487 22.7252 3.96548V4.71493ZM30.2312 2.79463V5.57755L30.1065 5.87952C28.2438 4.53865 25.4939 5.76009 25.3375 7.17658C25.1817 8.65619 26.3004 9.85259 29.1565 8.95868L28.175 11.6029C24.4067 12.0248 22.9442 10.5202 22.7252 8.76362V7.76853C22.7817 7.30905 22.9002 6.8621 23.0628 6.44643C24.9192 1.79954 27.9311 2.8447 29.0752 2.75656L29.244 2.24023L30.2312 2.79463ZM30.2312 9.41815L29.2875 11.4709H30.2312V9.41815ZM19.338 11.4141C21.3565 11.0114 23.3377 8.56805 21.3503 6.62271C22.1252 6.20705 22.6067 5.45812 22.7252 4.71493V3.96548C22.5881 3.191 21.9943 2.5615 20.8755 2.54273L19.338 2.51091V4.23616H19.9753C20.6566 4.23616 20.5691 6.01199 19.719 6.01199H19.338V7.37216C20.2569 7.54844 19.9318 8.83246 19.338 9.22935V11.4141ZM22.7252 7.76853V8.76362C22.688 8.4361 22.688 8.10231 22.7252 7.76853ZM16.6755 2.45459L15.432 4.88495L15.988 4.84062L14.4883 11.4709H18.782C18.9694 11.4709 19.1506 11.4521 19.338 11.4141V9.22935C19.2319 9.30498 19.1128 9.34879 18.9943 9.34879H17.4505L17.963 7.35286H19.119C19.2003 7.35286 19.2754 7.35912 19.338 7.37216V6.01199H18.2628L18.694 4.23616H19.338V2.51091L16.6755 2.45459Z" fill="#003399"/>
</g>
<defs>
<clipPath id="clip0_657_2267">
<rect width="38" height="12.5174" fill="white" transform="translate(0 0.566406)"/>
</clipPath>
</defs>
</svg>
