<svg width="38" height="33" viewBox="0 0 38 33" fill="none" xmlns="http://www.w3.org/2000/svg">
<g clip-path="url(#clip0_657_2253)">
<path fill-rule="evenodd" clip-rule="evenodd" d="M7.55225 4.08776C7.55225 2.28549 9.02385 0.824219 10.8389 0.824219H27.182C28.997 0.824219 30.4673 2.28549 30.4673 4.08776V20.3162C30.4673 22.1185 28.997 23.5797 27.182 23.5797H10.8389C9.02385 23.5797 7.55225 22.1185 7.55225 20.3162V4.08776ZM11.5498 21.3499C10.5826 21.3499 9.79787 20.5706 9.79787 19.6089V4.79908C9.79787 3.83866 10.5826 3.05941 11.5498 3.05941H13.5486C16.1833 3.05941 18.1338 5.70887 16.4489 7.3846L11.5619 12.2439L15.7567 16.6078C17.7904 18.7231 15.4079 21.3499 13.1516 21.3499H11.5498ZM17.8936 3.05941H19.5826C22.2159 3.05941 24.1664 5.70887 22.4828 7.3846L17.5945 12.2439L26.5797 21.3459L17.0982 21.3446C19.1345 21.3446 20.421 17.9411 18.2411 15.6873L14.9116 12.2439L18.7871 8.27708C20.8744 6.14046 19.3599 3.39109 17.8936 3.05941ZM28.2203 19.6089L20.9442 12.2439L24.821 8.27708C26.9083 6.14046 25.3925 3.39109 23.9262 3.05941H26.4643C27.4328 3.05941 28.2176 3.83866 28.2176 4.79908L28.2203 19.6089ZM1.50222 30.4572V31.7839H2.09783C2.40771 31.7839 2.64247 31.7253 2.80211 31.6107C2.96174 31.4962 3.04223 31.3283 3.04223 31.1085C3.04223 30.8914 2.96845 30.7289 2.82223 30.6197C2.67601 30.5118 2.45735 30.4572 2.16625 30.4572H1.50222ZM1.50222 28.1953V29.4568H1.96235C2.28296 29.4568 2.52174 29.4022 2.68137 29.2956C2.83967 29.1877 2.91881 29.0239 2.91881 28.8041C2.91881 28.6043 2.84503 28.4537 2.69479 28.3498C2.54589 28.2473 2.32454 28.1953 2.03478 28.1953H1.50222ZM0.0185547 27.1776H2.34601C3.03418 27.1776 3.55199 27.3002 3.89809 27.5453C4.24553 27.7917 4.41858 28.1567 4.41858 28.6416C4.41858 28.9666 4.32736 29.2383 4.14626 29.4541C3.96516 29.6699 3.70089 29.8258 3.35345 29.9203C3.74382 29.9923 4.04297 30.1441 4.25224 30.3759C4.4615 30.6077 4.56614 30.9034 4.56614 31.263C4.56614 31.7932 4.37565 32.1862 3.99333 32.4419C3.61235 32.6963 3.02479 32.8242 2.23064 32.8242H0.0185547V27.1776H0.0185547ZM7.8125 28.4378L7.07603 30.5544H8.52482L7.8125 28.4378ZM6.92847 27.1776H8.75689L10.91 32.8242H9.28946L8.88567 31.628H6.69639L6.27249 32.8242H4.77273L6.92847 27.1776ZM11.2373 27.1776H13.1301L14.7761 30.5637C14.8324 30.6769 14.8981 30.8355 14.9733 31.0379C15.047 31.2404 15.1302 31.4895 15.2201 31.7839C15.1731 31.5055 15.1369 31.2497 15.1141 31.0166C15.0913 30.7835 15.0806 30.5704 15.0806 30.3772V27.1776H16.4489V32.8242H14.5641L12.8537 29.3156C12.7746 29.1544 12.7008 28.9786 12.6337 28.7894C12.568 28.6003 12.5063 28.3938 12.45 28.1713C12.5036 28.5084 12.5425 28.8174 12.568 29.0998C12.5935 29.3809 12.6069 29.6299 12.6069 29.8444V32.8242H11.2373V27.1776ZM17.5247 27.1776H19.0406V29.618L20.802 27.1776H22.4989L20.4102 29.7725L22.7122 32.8242H20.8288L19.0406 30.2054V32.8242H17.5247V27.1776ZM27.123 30.4572V31.7839H27.7199C28.0285 31.7839 28.2632 31.7253 28.4229 31.6107C28.5838 31.4962 28.663 31.3283 28.663 31.1085C28.663 30.8914 28.5905 30.7289 28.443 30.6197C28.2968 30.5118 28.0781 30.4572 27.787 30.4572H27.123ZM27.123 28.1953V29.4568H27.5831C27.9037 29.4568 28.1438 29.4022 28.3021 29.2956C28.4604 29.1877 28.5409 29.0239 28.5409 28.8041C28.5409 28.6043 28.4658 28.4537 28.3155 28.3498C28.1666 28.2473 27.9466 28.1953 27.6555 28.1953H27.123ZM25.6393 27.1776H27.9681C28.6563 27.1776 29.1727 27.3002 29.5202 27.5453C29.8663 27.7917 30.0393 28.1567 30.0393 28.6416C30.0393 28.9666 29.9494 29.2383 29.7683 29.4541C29.5859 29.6699 29.3216 29.8258 28.9755 29.9203C29.3646 29.9923 29.6637 30.1441 29.873 30.3759C30.0823 30.6077 30.1869 30.9034 30.1869 31.263C30.1869 31.7932 29.9964 32.1862 29.6154 32.4419C29.2344 32.6963 28.6455 32.8242 27.8514 32.8242H25.6393V27.1776ZM32.5653 28.1713V29.6193H33.0979C33.4252 29.6193 33.672 29.5593 33.8357 29.4421C33.9993 29.3236 34.0812 29.1464 34.0812 28.9106C34.0812 28.6562 33.99 28.4697 33.8075 28.3498C33.6251 28.23 33.3367 28.1713 32.9409 28.1713H32.5653ZM31.083 27.1776H33.342C34.0946 27.1776 34.6526 27.2988 35.0175 27.5413C35.3824 27.7837 35.5648 28.1527 35.5648 28.6482C35.5648 29.0145 35.4683 29.3156 35.2764 29.5514C35.0832 29.7871 34.8056 29.9443 34.442 30.0242C34.7412 30.1321 34.9813 30.4412 35.1637 30.95L35.8425 32.8242H34.2623L33.7619 31.279C33.6814 31.0299 33.5728 30.8581 33.4332 30.7622C33.2951 30.6676 33.0791 30.6197 32.7853 30.6197H32.5653V32.8242H31.083V27.1776ZM36.4663 27.1776H37.9822V32.8242H36.4663V27.1776Z" fill="#1F4396"/>
</g>
<defs>
<clipPath id="clip0_657_2253">
<rect width="38" height="32" fill="white" transform="translate(0 0.824219)"/>
</clipPath>
</defs>
</svg>
