<svg width="24" height="24" viewBox="0 0 24 24" fill="none" xmlns="http://www.w3.org/2000/svg">
<g clip-path="url(#clip0_644_1309)">
<path d="M10.125 3.375H14.625C15.2482 3.375 15.75 3.8775 15.75 4.5V5.625H9V4.5C9 3.8775 9.50175 3.375 10.125 3.375Z" stroke="#F9AA36" stroke-linecap="round" stroke-linejoin="round"/>
<path d="M0.750004 5.25H24V19.125C24 20.1637 23.1638 21 22.125 21H2.625C2.37864 21.0005 2.1346 20.9523 1.90689 20.8583C1.67918 20.7642 1.47228 20.6261 1.29808 20.4519C1.12387 20.2777 0.985776 20.0708 0.891723 19.8431C0.79767 19.6154 0.74951 19.3714 0.750004 19.125V7.125V5.25Z" fill="#713F97"/>
<path d="M7.52025 12.9998H1.875C1.25175 12.9998 0.75 12.498 0.75 11.8748V5.25H24V11.8748C24 12.498 23.4982 12.9998 22.875 12.9998H16.6702" fill="#713F97"/>
<path d="M0.75 11.875V12.6235C0.75 13.2468 1.25175 13.7485 1.875 13.7485H22.875C23.4982 13.7485 24 13.2468 24 12.6235V11.875C24 12.4983 23.4982 13 22.875 13H1.875C1.25175 13 0.75 12.4983 0.75 11.875Z" fill="#0C5286"/>
<path d="M16.6814 13.125C16.6814 15.609 14.6572 17.625 12.1679 17.625C9.67791 17.625 7.68066 15.609 7.68066 13.125C7.68066 10.6417 9.67791 8.625 12.1679 8.625C14.6579 8.625 16.6814 10.6417 16.6814 13.125Z" fill="#F9BC36"/>
<path d="M11.811 9.75V10.5202C11.5571 10.566 11.3169 10.6686 11.1082 10.8203C10.6207 11.1638 10.3657 11.7877 10.5465 12.384C10.7527 13.101 11.454 13.5127 12.144 13.5H12.2332C12.6022 13.4925 13.0012 13.7423 13.0957 14.0745L13.0987 14.082C13.176 14.3325 13.0477 14.6617 12.8205 14.82L12.81 14.8275C12.4222 15.117 11.7375 15.0375 11.4577 14.6475C11.3758 14.5344 11.331 14.3987 11.3295 14.259H10.5795C10.5787 14.5605 10.677 14.8492 10.8487 15.0885C11.0887 15.423 11.436 15.6285 11.811 15.717V16.5H12.561V15.7328C12.807 15.6848 13.0455 15.5902 13.254 15.4357C13.7415 15.0922 13.9965 14.4675 13.815 13.8712C13.608 13.155 12.9075 12.7432 12.2182 12.756H12.1305C11.7607 12.7635 11.361 12.5137 11.2665 12.1822L11.2635 12.1748C11.1862 11.9243 11.3145 11.5943 11.541 11.436L11.5515 11.4277C11.9392 11.1382 12.624 11.2178 12.9037 11.6078H12.9052C12.9877 11.7203 13.0327 11.8628 13.0327 11.9955H13.7827C13.7828 11.6981 13.6883 11.4084 13.5127 11.1683C13.2814 10.8514 12.9434 10.6287 12.561 10.5412V9.75H11.811Z" fill="#F9AA36"/>
<path d="M16.6814 13.125C16.6814 15.609 14.6572 17.625 12.1679 17.625C9.67791 17.625 7.68066 15.609 7.68066 13.125C7.68066 10.6417 9.67791 8.625 12.1679 8.625C14.6579 8.625 16.6814 10.6417 16.6814 13.125Z" stroke="#F9AA36" stroke-miterlimit="34.178" stroke-linecap="round" stroke-linejoin="round"/>
</g>
<defs>
<clipPath id="clip0_644_1309">
<rect width="24" height="24" fill="white"/>
</clipPath>
</defs>
</svg>
