<svg width="38" height="14" viewBox="0 0 38 14" fill="none" xmlns="http://www.w3.org/2000/svg">
<g clip-path="url(#clip0_657_2281)">
<path d="M20.649 11.397C20.6098 12.1336 20.282 12.6376 19.6536 12.9434C19.4709 13.0318 19.3007 12.9617 19.2177 12.7746C19.1535 12.6298 19.2271 12.4656 19.3988 12.3888C19.8441 12.1901 20.0393 11.7829 20.0309 11.3991C20.0205 10.9323 19.7418 10.5763 19.3028 10.4231C18.88 10.2762 18.4384 10.4189 18.1262 10.8042C17.8867 11.1001 17.8663 11.6114 18.0767 11.9538C18.1931 12.1441 18.347 12.2873 18.5496 12.383C18.7406 12.4729 18.8079 12.6392 18.7307 12.8039C18.6519 12.9717 18.465 13.0255 18.2776 12.9304C17.7744 12.6763 17.4445 12.2811 17.3438 11.7201C17.1846 10.8335 17.7374 10.0383 18.5339 9.81769C19.4756 9.55682 20.3796 10.1528 20.5905 11.0149C20.6234 11.1508 20.6333 11.293 20.649 11.397Z" fill="#00AA11"/>
<path d="M23.0528 10.4975C23.0581 10.427 23.0617 10.371 23.0664 10.3067C23.2293 10.3067 23.3859 10.3067 23.5524 10.3067C23.556 10.3423 23.5628 10.3763 23.5628 10.4102C23.5633 10.9853 23.5659 11.5609 23.5618 12.1365C23.5586 12.4915 23.4219 12.7837 23.105 12.9625C22.7083 13.1873 22.0893 13.1167 21.7348 12.8182C21.7014 12.79 21.6696 12.7602 21.6304 12.7251C21.7359 12.6211 21.8392 12.5192 21.953 12.4073C22.13 12.5495 22.3283 12.6211 22.5601 12.6143C22.9176 12.6033 23.0941 12.4073 23.0476 12.0257C22.748 12.2604 22.4181 12.2693 22.0825 12.1569C21.8826 12.09 21.7249 11.9561 21.6127 11.769C21.3762 11.3743 21.4373 10.8734 21.7646 10.5676C22.1154 10.2398 22.6457 10.2063 23.0528 10.4975ZM23.0325 11.2624C23.0325 10.9288 22.8519 10.7469 22.523 10.75C22.2135 10.7527 22.0052 10.956 21.9937 11.2383C21.9791 11.6069 22.2182 11.7726 22.5345 11.7684C22.8597 11.7637 23.0325 11.5917 23.0325 11.2624Z" fill="black"/>
<path d="M31.2963 10.3002C30.9967 10.583 30.7237 10.8413 30.4465 11.1032C30.7284 11.4785 31.004 11.8455 31.2984 12.2376C31.0969 12.2376 30.9304 12.2429 30.7644 12.234C30.7258 12.2319 30.6798 12.1906 30.6537 12.1556C30.5003 11.9506 30.3526 11.7415 30.2022 11.5345C30.1772 11.4995 30.15 11.466 30.1051 11.4064C29.9971 11.5303 29.8593 11.6275 29.8123 11.7582C29.7633 11.8947 29.8014 12.0625 29.8014 12.2382C29.7116 12.2382 29.6338 12.2382 29.556 12.2382C29.4819 12.2382 29.4073 12.2382 29.3211 12.2382C29.3175 12.1801 29.3128 12.1336 29.3128 12.0866C29.3123 11.3609 29.3159 10.6348 29.3086 9.90862C29.3076 9.76903 29.3504 9.72878 29.4819 9.74289C29.5816 9.75387 29.6829 9.74498 29.7998 9.74498C29.7998 10.1862 29.7998 10.6118 29.7998 11.0734C29.9517 10.9359 30.0785 10.8235 30.2028 10.7085C30.3296 10.5919 30.4528 10.4717 30.5801 10.3561C30.6078 10.331 30.6459 10.3033 30.6804 10.3023C30.8725 10.2976 31.0651 10.3002 31.2963 10.3002Z" fill="black"/>
<path d="M27.5461 11.4347C27.5763 11.6396 27.7721 11.7965 27.9976 11.8142C28.1881 11.8294 28.3666 11.8017 28.5222 11.6778C28.5472 11.6579 28.6005 11.6422 28.6219 11.6553C28.7263 11.7196 28.8239 11.7938 28.9335 11.8712C28.5958 12.2084 28.2111 12.301 27.7695 12.1917C27.4098 12.1028 27.1494 11.9005 27.0648 11.5314C26.8816 10.7279 27.4996 10.1967 28.2137 10.318C28.6281 10.3881 28.886 10.6317 28.9831 11.0374C29.0123 11.1587 29.0039 11.2888 29.0139 11.4347C28.7544 11.4347 28.5128 11.4347 28.2711 11.4347C28.0331 11.4347 27.7945 11.4347 27.5461 11.4347ZM28.5049 11.0646C28.4715 10.8235 28.28 10.7085 27.9579 10.7237C27.7272 10.7342 27.5706 10.8659 27.5591 11.0646C27.8723 11.0646 28.1844 11.0646 28.5049 11.0646Z" fill="black"/>
<path d="M24.8798 10.2734C25.4509 10.2964 25.8753 10.6525 25.9181 11.2071C25.9468 11.5856 25.7808 11.8894 25.4488 12.0933C25.0683 12.327 24.4649 12.2642 24.1428 11.9526C23.6595 11.4847 23.8072 10.6598 24.4263 10.401C24.5698 10.3409 24.728 10.3153 24.8798 10.2734ZM25.3992 11.2709C25.3982 10.9562 25.1977 10.7481 24.8945 10.7502C24.5541 10.7528 24.3761 10.9724 24.3647 11.272C24.3537 11.56 24.6001 11.7911 24.8887 11.789C25.1972 11.7864 25.4003 11.5804 25.3992 11.2709Z" fill="black"/>
<path d="M26.2173 10.3027C26.3922 10.3027 26.5462 10.3027 26.7216 10.3027C26.7216 10.3461 26.7216 10.3879 26.7216 10.4298C26.7216 11.1298 26.7216 11.8298 26.721 12.5298C26.721 12.8827 26.5154 13.0882 26.1625 13.0892C26.0268 13.0897 25.8906 13.0897 25.7402 13.0897C25.7402 13.0066 25.7402 12.9371 25.7402 12.8675C25.7402 12.7975 25.7402 12.7269 25.7402 12.6323C25.8311 12.6323 25.9135 12.6354 25.9955 12.6312C26.1818 12.6223 26.2173 12.5842 26.2173 12.4002C26.2173 11.7535 26.2173 11.1068 26.2173 10.4601C26.2173 10.412 26.2173 10.3644 26.2173 10.3027Z" fill="black"/>
<path d="M18.3641 11.406C18.326 11.1226 18.6846 10.7817 18.9889 10.8016C19.3261 10.8241 19.6049 11.0871 19.6028 11.4242C19.6007 11.7599 19.3094 12.0563 18.9743 12.0474C18.6387 12.0385 18.3443 11.7724 18.3641 11.406Z" fill="#00AA11"/>
<path d="M6.70117 10.5371H7.22158C7.50502 10.5371 7.67257 10.6971 7.67257 10.9538C7.67257 11.2146 7.50711 11.3673 7.22158 11.3673H6.85933V11.8885H6.70117V10.5371ZM7.21219 11.2167C7.41837 11.2167 7.51285 11.1336 7.51285 10.9538C7.51285 10.7745 7.41419 10.6877 7.21219 10.6877H6.85933V11.2167H7.21219Z" fill="black"/>
<path d="M8.23165 10.8359C8.52083 10.8359 8.71396 11.0539 8.71396 11.3765C8.71396 11.6991 8.52083 11.9171 8.23165 11.9171C7.94456 11.9171 7.75195 11.6991 7.75195 11.3765C7.75195 11.0539 7.94456 10.8359 8.23165 10.8359ZM8.23165 10.9771C8.02965 10.9771 7.90228 11.1313 7.90228 11.3765C7.90228 11.6217 8.02965 11.7759 8.23165 11.7759C8.43418 11.7759 8.56363 11.6217 8.56363 11.3765C8.56363 11.1313 8.43418 10.9771 8.23165 10.9771Z" fill="black"/>
<path d="M8.81055 10.8652H8.95879L9.14357 11.6609H9.14774L9.42126 10.8652H9.55802L9.83206 11.6609H9.83571L10.021 10.8652H10.1693L9.92445 11.8889H9.78195L9.49277 11.0529H9.4886L9.19786 11.8889H9.05483L8.81055 10.8652Z" fill="black"/>
<path d="M10.74 10.8359C11.014 10.8359 11.1967 11.0424 11.1967 11.3436V11.4209H10.42C10.4242 11.618 10.5494 11.7801 10.7363 11.7801C10.8809 11.7801 10.9618 11.7278 11.0485 11.5752L11.1737 11.6504C11.0871 11.8261 10.9388 11.9171 10.74 11.9171C10.4565 11.9171 10.2676 11.6991 10.2676 11.3765C10.2676 11.0539 10.4628 10.8359 10.74 10.8359ZM11.0448 11.2991C11.0427 11.2045 11.0119 11.1277 10.9561 11.0654C10.9002 11.0038 10.8287 10.9729 10.74 10.9729C10.5667 10.9729 10.4278 11.1277 10.4242 11.2991H11.0448Z" fill="black"/>
<path d="M11.4111 10.8649H11.5536V10.9501H11.5573C11.5959 10.8863 11.6711 10.8477 11.7692 10.8477C11.8 10.8477 11.835 10.8534 11.8715 10.8633L11.8386 11.0197C11.8021 11.0082 11.7676 11.0024 11.7384 11.0024C11.6173 11.0024 11.5609 11.0834 11.5609 11.2743V11.8885H11.4111V10.8649Z" fill="black"/>
<path d="M12.4128 10.8359C12.6863 10.8359 12.8695 11.0424 12.8695 11.3436V11.4209H12.0928C12.0965 11.618 12.2218 11.7801 12.4086 11.7801C12.5532 11.7801 12.6347 11.7278 12.7213 11.5752L12.8466 11.6504C12.7599 11.8261 12.6112 11.9171 12.4128 11.9171C12.1294 11.9171 11.9404 11.6991 11.9404 11.3765C11.9404 11.0539 12.1351 10.8359 12.4128 10.8359ZM12.7171 11.2991C12.7156 11.2045 12.6848 11.1277 12.6289 11.0654C12.5725 11.0038 12.5016 10.9729 12.4128 10.9729C12.2395 10.9729 12.1007 11.1277 12.0965 11.2991H12.7171Z" fill="black"/>
<path d="M13.5037 10.8356C13.6274 10.8356 13.7371 10.8879 13.8044 10.9726H13.8086V10.4785H13.9589V11.888H13.8143V11.7855H13.8101C13.7428 11.8686 13.629 11.9167 13.5037 11.9167C13.2381 11.9167 13.0449 11.6945 13.0449 11.3761C13.0449 11.0578 13.2381 10.8356 13.5037 10.8356ZM13.8086 11.2758C13.8086 11.1095 13.6734 10.9767 13.5037 10.9767C13.3205 10.9767 13.1953 11.1346 13.1953 11.3761C13.1953 11.6177 13.3205 11.7756 13.5137 11.7756C13.6755 11.7756 13.8086 11.6407 13.8086 11.4744V11.2758Z" fill="black"/>
<path d="M14.8784 11.7855V11.888H14.7344V10.4785H14.8842V10.9726H14.8884C14.9557 10.8879 15.0658 10.8356 15.189 10.8356C15.4552 10.8356 15.6478 11.0578 15.6478 11.3761C15.6478 11.6945 15.4552 11.9167 15.189 11.9167C15.0637 11.9167 14.95 11.8686 14.8826 11.7855H14.8784ZM15.189 10.9767C15.0194 10.9767 14.8842 11.1095 14.8842 11.2758V11.4744C14.8842 11.6407 15.0173 11.7756 15.1791 11.7756C15.3722 11.7756 15.4975 11.6177 15.4975 11.3761C15.4975 11.1346 15.3722 10.9767 15.189 10.9767Z" fill="black"/>
<path d="M16.0913 11.8015L15.6982 10.8652H15.8585L16.1685 11.628H16.1722L16.4849 10.8652H16.6446L16.0318 12.3228H15.8757L16.0913 11.8015Z" fill="black"/>
<path d="M4.14607 0.554688C6.43547 0.554688 8.29162 2.3489 8.29162 4.56187C8.29162 6.77483 6.43547 8.56905 4.14607 8.56905C1.85615 8.56905 0 6.77483 0 4.56187C0 2.3489 1.85615 0.554688 4.14607 0.554688Z" fill="#00AED6"/>
<path fill-rule="evenodd" clip-rule="evenodd" d="M6.56426 4.43787C6.53242 3.92763 6.08352 3.53658 5.55527 3.55958H2.93651C2.84099 3.55958 2.76373 3.48482 2.76373 3.39229C2.76373 3.30028 2.84099 3.22552 2.93651 3.22552H5.58972C5.57459 2.87996 5.3303 2.58301 4.98527 2.491C4.2117 2.35717 3.41986 2.35717 2.64629 2.491C2.20678 2.59556 1.87794 2.94896 1.81739 3.38236C1.69629 4.16863 1.69629 4.96745 1.81739 5.7532C1.90978 6.21221 2.28665 6.56719 2.76373 6.64508C3.72261 6.76167 4.69297 6.76167 5.65184 6.64508C6.07934 6.56144 6.40244 6.22215 6.4536 5.80339C6.54129 5.35327 6.57835 4.89531 6.56426 4.43787ZM5.70038 4.99882V5.14572C5.70038 5.23773 5.62313 5.31249 5.52761 5.31249C5.43209 5.31249 5.35483 5.23773 5.35483 5.14572V4.99882C5.29898 4.95177 5.26766 4.88328 5.26871 4.81166C5.26871 4.67312 5.38459 4.56125 5.52761 4.56125C5.67063 4.56125 5.78651 4.67312 5.78651 4.81166C5.78599 4.88276 5.75467 4.95072 5.70038 4.99882Z" fill="white"/>
<path d="M20.1001 4.11193C20.1059 3.4093 19.5212 2.83528 18.7941 2.82953C18.067 2.8243 17.4735 3.38891 17.4678 4.09154C17.462 4.79417 18.0467 5.36872 18.7738 5.37394C18.7806 5.37394 18.7873 5.37394 18.7941 5.37394C19.4837 5.41002 20.073 4.89821 20.11 4.23165C20.1121 4.19192 20.1121 4.15166 20.1106 4.11193H20.1001ZM16.1895 4.11193C16.1895 2.77621 17.2809 1.75781 18.7941 1.75781C20.3073 1.75781 21.3993 2.78248 21.3993 4.11193C21.3993 5.44086 20.3178 6.46919 18.7941 6.46919C17.2705 6.46919 16.1895 5.444 16.1895 4.11193Z" fill="black"/>
<path d="M14.1169 4.35555C14.1169 4.90657 13.5365 5.35722 12.801 5.35722C12.125 5.42361 11.5216 4.94735 11.4533 4.29386C11.4465 4.22799 11.4454 4.1616 11.4501 4.0952C11.4501 3.36696 12.0029 2.86613 12.8527 2.86613C13.5438 2.86613 14.1169 3.32357 14.1169 3.84113V4.35555ZM14.1686 1.75415V2.28165C13.7484 1.91256 13.1914 1.72383 12.6246 1.75781C11.2841 1.76932 10.2078 2.82953 10.2198 4.125C10.2324 5.42047 11.329 6.46135 12.6695 6.44932C13.2212 6.47337 13.7583 6.27367 14.1514 5.8983V6.34895C14.1514 6.96009 13.6059 7.4076 12.8871 7.4076C12.3385 7.44576 11.7978 7.26226 11.3948 6.89997L10.5549 7.68154C11.1844 8.27856 12.04 8.59956 12.9216 8.56976C14.3936 8.56976 15.402 7.61462 15.402 6.34267V1.75415H14.1686Z" fill="black"/>
<path d="M22.1602 1.89073H23.3967V2.28492H23.4139C23.8195 1.92733 24.3551 1.74017 24.9032 1.7637C26.2493 1.81284 27.2996 2.90756 27.2489 4.20826C27.2009 5.441 26.1783 6.42907 24.9032 6.4756C24.3796 6.4871 23.8686 6.32085 23.4588 6.00456V8.23531H22.1706L22.1602 1.89073ZM24.7027 2.86574C24.0116 2.86574 23.4489 3.32997 23.4489 3.83446V4.39855C23.4489 4.93598 24.0048 5.38035 24.7095 5.38035C25.4283 5.4159 26.0405 4.88213 26.0776 4.18787C26.1147 3.49361 25.5624 2.90181 24.8436 2.86574C24.7993 2.86364 24.7544 2.86364 24.7095 2.86574H24.7027Z" fill="black"/>
<path d="M29.7221 3.67997C30.5687 3.56966 30.8209 3.45256 30.8209 3.22567C30.8209 2.93186 30.4998 2.75463 30.0019 2.75463C29.4658 2.71229 28.9777 3.05419 28.8514 3.55973L27.6357 3.31559C27.8085 2.4075 28.7757 1.75977 29.9674 1.75977C31.3152 1.75977 32.1509 2.42737 32.1509 3.50954V6.34463H30.9936V5.85059H30.9764C30.5839 6.27771 30.0081 6.5046 29.4183 6.46487C28.3989 6.46487 27.6905 5.92692 27.6905 5.12914C27.6905 4.33084 28.271 3.8734 29.7221 3.67997ZM30.9247 4.15048H30.9075C30.7932 4.31098 30.562 4.40456 29.9225 4.51121C29.1662 4.64818 28.8864 4.79194 28.8864 5.05229C28.8864 5.31264 29.1109 5.43968 29.5979 5.43968C30.3406 5.43968 30.9143 5.10562 30.9143 4.68163L30.9247 4.15048Z" fill="black"/>
<path d="M34.4823 6.09489L32.3506 1.89062H33.7709L35.1698 4.80256H35.1907L36.5723 1.89062H37.9994L34.807 8.23519H33.3872L34.4823 6.09489Z" fill="black"/>
</g>
<defs>
<clipPath id="clip0_657_2281">
<rect width="38" height="12.5469" fill="white" transform="translate(0 0.550781)"/>
</clipPath>
</defs>
</svg>
