<svg width="38" height="14" viewBox="0 0 38 14" fill="none" xmlns="http://www.w3.org/2000/svg">
<path fill-rule="evenodd" clip-rule="evenodd" d="M12.8811 0.97124H17.7679L17.7711 2.91968L16.5679 2.91648L19.4214 9.64802L22.2267 2.92288H20.9914L20.9881 0.97764L24.9033 0.974442L24.8969 2.08464L20.1871 13.0202C19.0515 13.0234 18.3115 12.6139 17.9158 11.7564L14.0393 2.92288H12.8779L12.8811 0.97124ZM6.15425 0.628906C9.55469 0.628906 12.3117 3.38999 12.3117 6.79416C12.3117 10.1983 9.55469 12.9562 6.15425 12.9562C2.75703 12.9562 0 10.1983 0 6.79416C0 3.38999 2.75703 0.628906 6.15425 0.628906ZM6.13816 2.64453C8.28073 2.64453 10.0179 4.52258 10.0179 6.83895C10.0179 9.15532 8.28073 11.0302 6.13816 11.0302C3.99238 11.0302 2.25516 9.15532 2.25516 6.83895C2.25516 4.52258 3.99238 2.64453 6.13816 2.64453ZM31.8425 0.628906C35.243 0.628906 38 3.38999 38 6.79416C38 10.1983 35.243 12.9562 31.8425 12.9562C28.4453 12.9562 25.6883 10.1983 25.6883 6.79416C25.6883 3.38999 28.4453 0.628906 31.8425 0.628906ZM31.8264 2.64453C33.969 2.64453 35.7062 4.52258 35.7062 6.83895C35.7062 9.15532 33.969 11.0302 31.8264 11.0302C29.6807 11.0302 27.9434 9.15532 27.9434 6.83895C27.9434 4.52258 29.6807 2.64453 31.8264 2.64453Z" fill="#4C3494"/>
</svg>
