<svg width="26" height="29" viewBox="0 0 26 29" fill="none" xmlns="http://www.w3.org/2000/svg">
<g clip-path="url(#clip0_657_2317)">
<path d="M22.0555 3.00419C20.6403 1.53169 18.0822 0.900391 14.8095 0.900391H5.3114C4.98761 0.900402 4.67443 1.00586 4.42819 1.1978C4.18194 1.38974 4.01878 1.65558 3.96804 1.94752L0.0131926 24.8451C-0.0654168 25.2966 0.317575 25.7055 0.818888 25.7055H6.6827L8.15536 17.1784L8.10965 17.4454C8.21457 16.8427 8.77925 16.3981 9.44794 16.3981H12.2344C17.7084 16.3981 21.9947 14.3684 23.2467 8.49683C23.2839 8.32317 23.3161 8.15415 23.3439 7.98903C23.1859 7.91263 23.1859 7.91263 23.3439 7.98903C23.7168 5.81884 23.3414 4.34161 22.0555 3.00419Z" fill="#27346A"/>
<path d="M10.3991 7.20725C10.5594 7.13757 10.7347 7.10146 10.9123 7.10156H18.3586C19.2404 7.10156 20.0628 7.15394 20.8144 7.26436C21.0247 7.29498 21.2339 7.33152 21.4418 7.37395C21.7363 7.43329 22.0275 7.50591 22.3142 7.59156C22.6837 7.70421 23.0278 7.8354 23.344 7.98903C23.7168 5.81801 23.3414 4.34161 22.0555 3.00419C20.6395 1.53169 18.0822 0.900391 14.8095 0.900391H5.31059C4.6418 0.900391 4.07285 1.34487 3.96804 1.94752L0.0131931 24.8443C-0.0654162 25.2965 0.317576 25.7049 0.818076 25.7049H6.6827L9.73801 8.01758C9.76805 7.84373 9.84391 7.67915 9.95907 7.53799C10.0742 7.39683 10.2252 7.28333 10.3991 7.20725Z" fill="#27346A"/>
<path d="M23.2465 8.49608C21.9945 14.3668 17.7083 16.3974 12.2342 16.3974H9.44692C8.77824 16.3974 8.21345 16.8419 8.10955 17.4447L6.27746 28.0471C6.20901 28.4423 6.54376 28.8004 6.9817 28.8004H11.9247C12.2079 28.8003 12.4817 28.708 12.697 28.5401C12.9123 28.3722 13.0549 28.1396 13.0991 27.8843L13.1473 27.6544L14.0789 22.2643L14.1389 21.9664C14.1832 21.7111 14.3257 21.4786 14.541 21.3107C14.7562 21.1428 15.03 21.0505 15.3132 21.0504H16.053C20.8413 21.0504 24.5907 19.2745 25.6864 14.1385C26.1437 11.9921 25.9071 10.2001 24.6972 8.94139C24.3303 8.56015 23.8746 8.24529 23.3437 7.98828C23.315 8.15424 23.2838 8.32243 23.2465 8.49608Z" fill="#2790C3"/>
<path d="M22.0354 7.5122C21.8402 7.46016 21.6431 7.41409 21.4445 7.37406C21.2366 7.33232 21.0274 7.29602 20.8172 7.26521C20.0648 7.15404 19.2429 7.10157 18.3604 7.10157H10.9149C10.7372 7.1012 10.5618 7.13762 10.4017 7.2081C10.2277 7.28394 10.0765 7.39737 9.9613 7.53857C9.84609 7.67977 9.77032 7.84447 9.74055 8.01843L8.15801 17.1785L8.1123 17.4455C8.21641 16.8428 8.78109 16.3982 9.44988 16.3982H12.2372C17.7112 16.3982 21.9973 14.3685 23.2494 8.49693C23.2867 8.32327 23.3179 8.155 23.3467 7.98913C23.0296 7.83633 22.6864 7.70431 22.3168 7.5924C22.2236 7.56418 22.1298 7.53744 22.0355 7.5122" fill="#1F264F"/>
</g>
<defs>
<clipPath id="clip0_657_2317">
<rect width="26" height="28" fill="white" transform="translate(0 0.824219)"/>
</clipPath>
</defs>
</svg>
