<svg width="38" height="13" viewBox="0 0 38 13" fill="none" xmlns="http://www.w3.org/2000/svg">
<g clip-path="url(#clip0_657_2327)">
<path d="M19.6527 4.58066C19.631 6.29425 21.1761 7.25044 22.34 7.81901C23.5358 8.40231 23.9375 8.7764 23.9327 9.29809C23.9238 10.0964 22.9789 10.4488 22.0946 10.4625C20.5519 10.4864 19.6549 10.0449 18.9418 9.71101L18.3861 12.3179C19.1015 12.6483 20.4263 12.9366 21.8001 12.9492C25.0249 12.9492 27.1347 11.3535 27.1461 8.87937C27.1587 5.73937 22.8135 5.56557 22.8432 4.16208C22.8534 3.73651 23.2585 3.28237 24.1462 3.1669C24.5856 3.10857 25.7984 3.06393 27.1736 3.69871L27.7133 1.17654C26.9738 0.906614 26.0233 0.648147 24.84 0.648147C21.8047 0.648147 19.6699 2.26561 19.6527 4.58066ZM32.8994 0.865396C32.3105 0.865396 31.8143 1.20972 31.5928 1.73811L26.9864 12.764H30.2088L30.8501 10.9874H34.7878L35.1598 12.764H38L35.5215 0.865396H32.8994ZM33.3502 4.07964L34.2802 8.54769H31.7333L33.3502 4.07964ZM15.7457 0.865544L13.2056 12.7638H16.2763L18.8152 0.865247H15.7457V0.865544ZM11.203 0.865247L8.00687 8.96403L6.71398 2.07797C6.56227 1.30927 5.96318 0.865396 5.29788 0.865396H0.0731797L0 1.21091C1.07261 1.44423 2.29128 1.82055 3.02961 2.2232C3.48145 2.46917 3.6103 2.68419 3.75873 3.26868L6.20751 12.764H9.4525L14.4275 0.865396H11.203" fill="url(#paint0_linear_657_2327)"/>
</g>
<defs>
<linearGradient id="paint0_linear_657_2327" x1="17.4701" y1="13.196" x2="17.8271" y2="0.562646" gradientUnits="userSpaceOnUse">
<stop stop-color="#222357"/>
<stop offset="1" stop-color="#254AA5"/>
</linearGradient>
<clipPath id="clip0_657_2327">
<rect width="38" height="12.3505" fill="white" transform="translate(0 0.648438)"/>
</clipPath>
</defs>
</svg>
