<svg width="124" height="128" viewBox="0 0 124 128" fill="none" xmlns="http://www.w3.org/2000/svg">
<path fill-rule="evenodd" clip-rule="evenodd" d="M0.13532 0H116C120.418 0 124 3.58172 124 8V124.228L123.277 124.536L122.021 125.031L120.755 125.489L119.479 125.91L118.194 126.292L116.902 126.637L115.602 126.943L114.297 127.21L112.987 127.438L111.673 127.627L110.355 127.778L109.036 127.89L107.715 127.964L106.394 128L105.073 127.998L103.753 127.959L102.436 127.884L101.121 127.772L99.8108 127.625L98.5047 127.442L97.2037 127.225L95.9088 126.974L94.6205 126.691L93.3394 126.374L92.0663 126.026L90.8017 125.648L89.5462 125.238L88.3003 124.8L87.0646 124.333L85.8395 123.837L84.6256 123.315L83.4232 122.766L82.2327 122.191L81.0547 121.592L79.8894 120.968L78.7373 120.32L77.5986 119.65L76.4736 118.957L75.3628 118.244L74.2664 117.509L73.1847 116.754L72.1179 115.979L71.0663 115.185L70.0302 114.373L69.0098 113.543L68.0054 112.696L67.0172 111.831L66.0454 110.951L65.0902 110.054L64.152 109.142L63.2308 108.215L62.327 107.273L61.4406 106.317L60.5719 105.348L59.7211 104.365L58.8884 103.369L58.0738 102.361L57.2775 101.341L56.4997 100.31L55.7403 99.2685L54.9994 98.2164L54.2771 97.1546L53.5732 96.0837L52.8878 95.0043L52.2207 93.9171L51.5718 92.8227L50.9409 91.7219L50.3278 90.6152L49.7321 89.5035L49.1537 88.3875L48.592 87.268L48.0466 86.1457L47.5172 85.0214L47.0031 83.8959L46.5038 82.77L46.0187 81.6444L45.547 80.52L45.0881 79.3976L44.6412 78.2779L44.2053 77.1619L43.7796 76.0502L43.363 74.9437L42.9546 73.8432L42.5531 72.7494L42.1576 71.6631L41.7668 70.585L41.3794 69.5158L40.9942 68.4561L40.6099 67.4064L40.2252 66.3675L39.8388 65.3395L39.4493 64.3231L39.0555 63.3186L38.6559 62.3261L38.2495 61.3459L37.8348 60.3782L37.4106 59.4229L36.9757 58.4801L36.529 57.5497L36.0692 56.6315L35.5953 55.7253L35.1064 54.8308L34.6013 53.9476L34.0794 53.0751L33.5397 52.213L32.9816 51.3605L32.4045 50.517L31.8079 49.6817L31.1915 48.8538L30.5548 48.0326L29.898 47.2169L29.2208 46.4059L28.5234 45.5986L27.8062 44.7939L27.0694 43.9906L26.3136 43.1877L25.5396 42.3841L24.7481 41.5785L23.9401 40.7698L23.1166 39.9569L22.279 39.1387L21.4286 38.3139L20.5669 37.4815L19.6956 36.6404L18.8163 35.7896L17.9309 34.928L17.0415 34.0548L16.15 33.1691L15.2588 32.2701L14.3699 31.3569L13.4858 30.429L12.6089 29.4858L11.7416 28.5269L10.8863 27.5516L10.0458 26.5599L9.22242 25.5515L8.41886 24.5262L7.63767 23.4842L6.8814 22.4254L6.15259 21.3501L5.45374 20.2586L4.7873 19.1514L4.15565 18.0289L3.5611 16.8918L3.00585 15.7408L2.49202 14.5767L2.02162 13.4004L1.5965 12.2131L1.21841 11.0156L0.88892 9.80914L0.609457 8.59501L0.381274 7.37444L0.205445 6.14878L0.0828592 4.91938L0.0142119 3.68769L0 2.45511L0.0405174 1.2231L0.13532 0Z" fill="url(#paint0_linear_654_1948)"/>
<defs>
<linearGradient id="paint0_linear_654_1948" x1="-20959.2" y1="21686.3" x2="-21150.9" y2="21502.2" gradientUnits="userSpaceOnUse">
<stop stop-color="#875C94"/>
<stop offset="1" stop-color="#12FADB"/>
</linearGradient>
</defs>
</svg>
